<mxfile host="app.diagrams.net" agent="Mozilla/5.0 (Windows NT 10.0; Win64; x64) AppleWebKit/537.36 (KHTML, like Gecko) Chrome/134.0.0.0 Safari/537.36 Edg/134.0.0.0" version="26.1.1">
  <diagram name="Страница — 1" id="6GIan2kOS7jT0ZGwv5d6">
    <mxGraphModel dx="856" dy="452" grid="1" gridSize="10" guides="1" tooltips="1" connect="1" arrows="1" fold="1" page="1" pageScale="1" pageWidth="827" pageHeight="1169" math="0" shadow="0">
      <root>
        <mxCell id="0" />
        <mxCell id="1" parent="0" />
        <mxCell id="823n9SAOf02_beupJA2P-2" value="&lt;b&gt;Client&lt;/b&gt;" style="rounded=0;whiteSpace=wrap;html=1;" vertex="1" parent="1">
          <mxGeometry x="330" y="40" width="100" height="20" as="geometry" />
        </mxCell>
        <mxCell id="823n9SAOf02_beupJA2P-3" value="ConcreteIterator" style="swimlane;fontStyle=1;align=center;verticalAlign=top;childLayout=stackLayout;horizontal=1;startSize=20;horizontalStack=0;resizeParent=1;resizeParentMax=0;resizeLast=0;collapsible=1;marginBottom=0;whiteSpace=wrap;html=1;" vertex="1" parent="1">
          <mxGeometry x="165" y="260" width="190" height="160" as="geometry" />
        </mxCell>
        <mxCell id="823n9SAOf02_beupJA2P-4" value="-collection:ConcreteCollection&lt;div&gt;-iteratorState&lt;/div&gt;&lt;div&gt;&lt;br&gt;&lt;/div&gt;" style="text;strokeColor=none;fillColor=none;align=left;verticalAlign=top;spacingLeft=4;spacingRight=4;overflow=hidden;rotatable=0;points=[[0,0.5],[1,0.5]];portConstraint=eastwest;whiteSpace=wrap;html=1;" vertex="1" parent="823n9SAOf02_beupJA2P-3">
          <mxGeometry y="20" width="190" height="50" as="geometry" />
        </mxCell>
        <mxCell id="823n9SAOf02_beupJA2P-5" value="" style="line;strokeWidth=1;fillColor=none;align=left;verticalAlign=middle;spacingTop=-1;spacingLeft=3;spacingRight=3;rotatable=0;labelPosition=right;points=[];portConstraint=eastwest;strokeColor=inherit;" vertex="1" parent="823n9SAOf02_beupJA2P-3">
          <mxGeometry y="70" width="190" height="10" as="geometry" />
        </mxCell>
        <mxCell id="823n9SAOf02_beupJA2P-6" value="&lt;span style=&quot;text-wrap-mode: nowrap;&quot;&gt;+ConcreteIterator(&lt;/span&gt;&lt;div style=&quot;text-wrap-mode: nowrap;&quot;&gt;c:ConcreteCollection)&lt;/div&gt;&lt;div style=&quot;text-wrap-mode: nowrap;&quot;&gt;+getNext()&lt;/div&gt;&lt;div style=&quot;text-wrap-mode: nowrap;&quot;&gt;+hasMore():bool&lt;/div&gt;" style="text;strokeColor=none;fillColor=none;align=left;verticalAlign=top;spacingLeft=4;spacingRight=4;overflow=hidden;rotatable=0;points=[[0,0.5],[1,0.5]];portConstraint=eastwest;whiteSpace=wrap;html=1;" vertex="1" parent="823n9SAOf02_beupJA2P-3">
          <mxGeometry y="80" width="190" height="80" as="geometry" />
        </mxCell>
        <mxCell id="823n9SAOf02_beupJA2P-9" value="«interface»&lt;br&gt;&lt;b&gt;Iterator&lt;/b&gt;" style="html=1;whiteSpace=wrap;" vertex="1" parent="1">
          <mxGeometry x="190" y="90" width="110" height="50" as="geometry" />
        </mxCell>
        <mxCell id="823n9SAOf02_beupJA2P-10" value="«interface»&lt;br&gt;&lt;b&gt;IterableCollection&lt;/b&gt;" style="html=1;whiteSpace=wrap;" vertex="1" parent="1">
          <mxGeometry x="450" y="90" width="160" height="50" as="geometry" />
        </mxCell>
        <mxCell id="823n9SAOf02_beupJA2P-11" value="+getNext()&lt;div&gt;+hasMor();bool&lt;/div&gt;&lt;div&gt;&lt;br&gt;&lt;/div&gt;" style="html=1;whiteSpace=wrap;align=left;" vertex="1" parent="1">
          <mxGeometry x="190" y="140" width="110" height="50" as="geometry" />
        </mxCell>
        <mxCell id="823n9SAOf02_beupJA2P-12" value="+createIterator():Iterator" style="html=1;whiteSpace=wrap;" vertex="1" parent="1">
          <mxGeometry x="450" y="140" width="160" height="50" as="geometry" />
        </mxCell>
        <mxCell id="823n9SAOf02_beupJA2P-14" value="ConcreteCollection" style="swimlane;fontStyle=1;align=center;verticalAlign=top;childLayout=stackLayout;horizontal=1;startSize=26;horizontalStack=0;resizeParent=1;resizeParentMax=0;resizeLast=0;collapsible=1;marginBottom=0;whiteSpace=wrap;html=1;" vertex="1" parent="1">
          <mxGeometry x="470" y="270" width="160" height="110" as="geometry" />
        </mxCell>
        <mxCell id="823n9SAOf02_beupJA2P-15" value="..." style="text;strokeColor=none;fillColor=none;align=left;verticalAlign=top;spacingLeft=4;spacingRight=4;overflow=hidden;rotatable=0;points=[[0,0.5],[1,0.5]];portConstraint=eastwest;whiteSpace=wrap;html=1;" vertex="1" parent="823n9SAOf02_beupJA2P-14">
          <mxGeometry y="26" width="160" height="26" as="geometry" />
        </mxCell>
        <mxCell id="823n9SAOf02_beupJA2P-16" value="" style="line;strokeWidth=1;fillColor=none;align=left;verticalAlign=middle;spacingTop=-1;spacingLeft=3;spacingRight=3;rotatable=0;labelPosition=right;points=[];portConstraint=eastwest;strokeColor=inherit;" vertex="1" parent="823n9SAOf02_beupJA2P-14">
          <mxGeometry y="52" width="160" height="8" as="geometry" />
        </mxCell>
        <mxCell id="823n9SAOf02_beupJA2P-17" value="...&lt;div&gt;+createIterator():Iterator&lt;/div&gt;" style="text;strokeColor=none;fillColor=none;align=left;verticalAlign=top;spacingLeft=4;spacingRight=4;overflow=hidden;rotatable=0;points=[[0,0.5],[1,0.5]];portConstraint=eastwest;whiteSpace=wrap;html=1;" vertex="1" parent="823n9SAOf02_beupJA2P-14">
          <mxGeometry y="60" width="160" height="50" as="geometry" />
        </mxCell>
        <mxCell id="823n9SAOf02_beupJA2P-18" style="edgeStyle=orthogonalEdgeStyle;rounded=0;orthogonalLoop=1;jettySize=auto;html=1;exitX=1;exitY=0.25;exitDx=0;exitDy=0;entryX=0.619;entryY=-0.06;entryDx=0;entryDy=0;entryPerimeter=0;" edge="1" parent="1" source="823n9SAOf02_beupJA2P-2" target="823n9SAOf02_beupJA2P-10">
          <mxGeometry relative="1" as="geometry" />
        </mxCell>
        <mxCell id="823n9SAOf02_beupJA2P-19" style="edgeStyle=orthogonalEdgeStyle;rounded=0;orthogonalLoop=1;jettySize=auto;html=1;exitX=0;exitY=0.25;exitDx=0;exitDy=0;entryX=0.609;entryY=-0.08;entryDx=0;entryDy=0;entryPerimeter=0;" edge="1" parent="1" source="823n9SAOf02_beupJA2P-2" target="823n9SAOf02_beupJA2P-9">
          <mxGeometry relative="1" as="geometry" />
        </mxCell>
        <mxCell id="823n9SAOf02_beupJA2P-20" value="" style="endArrow=open;endSize=12;dashed=1;html=1;rounded=0;entryX=1;entryY=1;entryDx=0;entryDy=0;exitX=0;exitY=0;exitDx=0;exitDy=0;" edge="1" parent="1" source="823n9SAOf02_beupJA2P-12" target="823n9SAOf02_beupJA2P-9">
          <mxGeometry width="160" relative="1" as="geometry">
            <mxPoint x="330" y="240" as="sourcePoint" />
            <mxPoint x="490" y="240" as="targetPoint" />
          </mxGeometry>
        </mxCell>
        <mxCell id="823n9SAOf02_beupJA2P-21" value="" style="endArrow=block;dashed=1;endFill=0;endSize=12;html=1;rounded=0;entryX=0.5;entryY=1;entryDx=0;entryDy=0;exitX=0.426;exitY=0.019;exitDx=0;exitDy=0;exitPerimeter=0;" edge="1" parent="1" source="823n9SAOf02_beupJA2P-3" target="823n9SAOf02_beupJA2P-11">
          <mxGeometry width="160" relative="1" as="geometry">
            <mxPoint x="330" y="340" as="sourcePoint" />
            <mxPoint x="490" y="340" as="targetPoint" />
          </mxGeometry>
        </mxCell>
        <mxCell id="823n9SAOf02_beupJA2P-22" value="" style="endArrow=block;dashed=1;endFill=0;endSize=12;html=1;rounded=0;entryX=0.544;entryY=0.98;entryDx=0;entryDy=0;entryPerimeter=0;exitX=0.425;exitY=-0.027;exitDx=0;exitDy=0;exitPerimeter=0;" edge="1" parent="1" source="823n9SAOf02_beupJA2P-14" target="823n9SAOf02_beupJA2P-12">
          <mxGeometry width="160" relative="1" as="geometry">
            <mxPoint x="330" y="340" as="sourcePoint" />
            <mxPoint x="490" y="340" as="targetPoint" />
          </mxGeometry>
        </mxCell>
        <mxCell id="823n9SAOf02_beupJA2P-23" value="" style="endArrow=classic;startArrow=classic;html=1;rounded=0;exitX=1.026;exitY=0;exitDx=0;exitDy=0;exitPerimeter=0;entryX=-0.019;entryY=0.2;entryDx=0;entryDy=0;entryPerimeter=0;" edge="1" parent="1" source="823n9SAOf02_beupJA2P-6" target="823n9SAOf02_beupJA2P-17">
          <mxGeometry width="50" height="50" relative="1" as="geometry">
            <mxPoint x="390" y="260" as="sourcePoint" />
            <mxPoint x="440" y="210" as="targetPoint" />
          </mxGeometry>
        </mxCell>
      </root>
    </mxGraphModel>
  </diagram>
</mxfile>
